<svg width="36" height="36" viewBox="0 0 36 36" fill="none" xmlns="http://www.w3.org/2000/svg">
<g clip-path="url(#clip0)">
<path fill-rule="evenodd" clip-rule="evenodd" d="M17.9998 5.23031e-06C13.7223 -0.00445312 9.58309 1.55335 6.3239 4.39426C3.06471 7.23517 0.898582 11.1735 0.213707 15.5034C-0.471168 19.8334 0.369967 24.2719 2.58639 28.0236C4.80281 31.7753 8.24966 34.595 12.3092 35.9773C13.2042 36.1473 13.5357 35.5694 13.5357 35.0822C13.5357 34.5949 13.5357 33.4844 13.5357 31.9434C8.53017 33.0765 7.4694 29.4731 7.4694 29.4731C7.13587 28.3563 6.42728 27.3968 5.46941 26.7649C3.8451 25.6317 5.602 25.6317 5.602 25.6317C6.17139 25.7142 6.71499 25.9284 7.19168 26.2583C7.66837 26.5881 8.06563 27.0248 8.35337 27.5354C8.59786 27.99 8.92748 28.3907 9.32332 28.7143C9.71916 29.038 10.1734 29.2783 10.66 29.4215C11.1467 29.5647 11.6561 29.6079 12.1591 29.5487C12.662 29.4895 13.1486 29.329 13.5909 29.0765C13.6603 28.1443 14.0522 27.2682 14.6959 26.6062C10.6959 26.1416 6.49702 24.5552 6.49702 17.5411C6.46956 15.7087 7.13024 13.9358 8.34231 12.5892C7.80139 10.9962 7.86454 9.25286 8.51914 7.70537C8.51914 7.70537 10.0329 7.20677 13.4694 9.59771C16.4203 8.76684 19.535 8.76684 22.4859 9.59771C25.9224 7.20677 27.4252 7.70537 27.4252 7.70537C28.0867 9.25066 28.1537 10.9953 27.613 12.5892C28.8251 13.9358 29.4858 15.7087 29.4583 17.5411C29.4583 24.6345 25.2484 26.187 21.2373 26.6062C21.6674 27.0496 21.9996 27.5826 22.2112 28.1691C22.4228 28.7557 22.509 29.382 22.4639 30.0056C22.4639 32.4759 22.4639 34.4703 22.4639 35.0708C22.4639 35.6714 22.7843 36.136 23.7015 35.966C27.7482 34.5706 31.18 31.7465 33.3848 27.9973C35.5896 24.248 36.4239 19.8175 35.7391 15.4959C35.0542 11.1744 32.8946 7.24291 29.6455 4.40263C26.3964 1.56235 22.2691 -0.00197948 17.9998 -0.0113373V5.23031e-06Z" fill="#5B5B5B"/>
</g>
<defs>
<clipPath id="clip0">
<rect width="36" height="36" fill="white"/>
</clipPath>
</defs>
</svg>
