<svg width="149" height="42" viewBox="0 0 149 42" fill="none" xmlns="http://www.w3.org/2000/svg">
<g clip-path="url(#clip0)">
<path fill-rule="evenodd" clip-rule="evenodd" d="M122.494 23.8541H114.138C112.901 23.8541 112.908 25.8963 114.138 25.8963C115.245 25.8963 116.297 25.8671 117.396 25.8671C117.481 25.8671 117.558 25.8671 117.643 25.8768H119.732C121.132 25.8768 122.78 27.3063 122.78 29.2026V29.7277C122.78 31.6143 121.132 33.0535 119.732 33.0535H119.276H117.403H117.187H110.618V30.4765H119.26C120.552 30.4765 120.513 28.4344 119.26 28.4344C118.161 28.4344 117.086 28.4538 116.003 28.4538C115.926 28.4538 115.848 28.4538 115.771 28.4441H113.674C112.274 28.4441 110.626 27.0146 110.626 25.1183V24.6029C110.626 22.7164 112.274 21.2771 113.674 21.2771H116.011H122.517V23.8541H122.494ZM91.4314 25.8768L97.0173 25.8963C98.2474 25.8963 98.2551 23.8541 97.0173 23.8541H95.5319H93.3965H91.9111C91.4237 23.8541 91.0214 24.2917 90.9286 24.8655H90.9208V25.9352C91.091 25.8963 91.2612 25.8768 91.4314 25.8768ZM100.553 30.4765H91.9111C90.6733 30.4765 90.6733 28.4344 91.9111 28.4344C93.0097 28.4344 94.0851 28.4538 95.1682 28.4538C95.2456 28.4538 95.323 28.4538 95.4003 28.4441H97.497C98.8973 28.4441 100.545 27.0146 100.545 25.1183V24.6029C100.545 22.7164 98.8973 21.2771 97.497 21.2771H95.5241H95.1605H93.3888H91.416C90.0156 21.2771 88.3677 22.7066 88.3677 24.6029V24.8655V29.1929V29.718C88.3677 31.6045 90.0156 33.0438 91.416 33.0438C94.4565 33.0438 97.497 33.0438 100.537 33.0438V30.4765H100.553ZM135.522 31.1475V32.3825V33.0535H134.486H132.149C130.749 33.0535 129.101 31.6143 129.101 29.7277V26.2755V24.6029V24.5932V17.1734C129.101 15.5786 130.13 14.2853 131.399 14.2853H131.685V21.3258C131.84 21.2966 131.995 21.2771 132.149 21.2771H134.486H134.811V23.8541H133.256H131.693V25.799V25.8088V26.9368V28.5122C131.693 29.5916 132.397 30.4765 133.256 30.4765H135.53V31.1475H135.522ZM88.4296 21.2771C87.2924 21.2869 85.7296 21.0827 84.9095 22.7844L81.1263 30L77.3431 22.7844C76.5771 21.1216 75.0066 21.2771 73.8229 21.2771L78.9755 31.2447C79.4938 32.2464 80.0896 32.9465 80.84 33.0438C81.7529 33.1605 82.5807 32.577 83.2693 31.2447C84.8631 28.1718 86.7044 24.6224 88.4296 21.2771ZM55.0306 23.7958C55.0306 22.3371 55.8275 21.2674 56.9803 21.2674L58.6746 21.2771C58.8293 21.2771 59.015 21.3258 59.3322 21.7245L66.3416 30.3306V23.3193C66.3416 21.8606 67.1384 21.2771 68.2912 21.2771L69.9855 21.2869C69.3434 21.3841 68.9179 21.5981 68.9256 23.5818V31.2739C68.9256 32.0032 68.5001 33.0632 67.9198 33.0632H66.1559H65.5756C65.0109 33.0729 64.5544 32.4214 64.1753 31.9449L57.6069 23.8152C57.6069 23.893 57.6069 23.9806 57.6069 24.0681V33.0729H55.0229V23.7958H55.0306ZM102.572 23.7958C102.572 22.3371 103.717 21.2674 104.87 21.2674H105.156H108.994H109.806V23.8444H108.994H106.719C105.86 23.8444 105.156 24.7293 105.156 25.8088V33.0438H102.572V23.7958ZM148.543 42H148.257C146.988 42 145.959 40.7066 145.959 39.1118V33.0049C145.804 33.034 145.65 33.0535 145.495 33.0535H141.418H139.329C137.929 33.0535 136.281 31.6143 136.281 29.7277V24.6029C136.281 22.94 137.557 21.6272 138.818 21.3355V25.1086V27.7245V29.222V29.2512C138.834 29.9319 139.275 30.4765 139.816 30.4765H145.015C145.487 30.4765 145.89 30.0583 145.99 29.4943C146.006 29.4068 146.013 29.3096 146.013 29.2123V27.7147V26.2755V24.6029C146.013 22.94 147.29 21.6272 148.551 21.3355V25.1086V29.3096V29.7374V29.7472L148.543 42ZM124.645 23.7958C124.645 22.3371 125.79 21.2674 126.943 21.2674H127.229V33.0438H124.645V23.7958ZM43.4334 21.3355C42.1724 21.6272 40.8958 22.94 40.8958 24.6029V29.7277C40.8958 31.6143 42.5437 33.0535 43.944 33.0535H47.031H48.0212H50.1101C51.5105 33.0535 53.1584 31.6143 53.1584 29.7277C53.1584 28.1912 53.1584 26.6451 53.1584 25.1086V21.3355C51.8973 21.6272 50.6207 22.94 50.6207 24.6029C50.6207 26.1394 50.6207 27.6856 50.6207 29.222C50.6207 29.9125 50.172 30.4765 49.6227 30.4765H47.0232H44.4237C43.8744 30.4765 43.4257 29.9125 43.4257 29.222V28.2885V25.1086V21.3355H43.4334ZM70.7979 23.7958C70.7979 22.3371 71.9429 21.2674 73.0956 21.2674H73.3819V33.0438H70.7979V23.7958ZM0 9.51054C0 8.05186 1.14502 6.98217 2.29778 6.98217H2.58403V18.7682H0V9.51054ZM27.1169 9.03404C27.1169 7.57536 27.9137 6.9919 29.0665 6.9919L30.7608 7.00162C30.111 7.09887 29.6932 7.3128 29.7009 9.2966V16.9887C29.7009 17.718 29.2754 18.778 28.6951 18.778H26.3587C25.7939 18.7877 25.3452 18.1361 24.9584 17.6596L18.359 9.49109V16.9984C18.359 17.7277 17.9335 18.7877 17.3533 18.7877H15.0091C14.4443 18.7974 13.9878 18.1459 13.6087 17.6694L7.04033 9.51054C7.04033 9.58833 7.04033 9.67585 7.04033 9.76337V18.7682H4.44856V9.51054C4.44856 8.05186 5.24543 6.98217 6.39819 6.98217L8.09251 6.9919C8.24724 6.9919 8.43292 7.04052 8.75012 7.43922L15.7595 16.0454V9.03404C15.7595 7.57536 16.5564 6.9919 17.7091 6.9919L19.4035 7.00162H19.4267C19.5891 7.00162 19.7748 7.05024 20.092 7.44895L27.1014 16.0551V9.03404H27.1169ZM100.298 9.55916H91.9421C90.7042 9.55916 90.7119 11.6013 91.9421 11.6013C93.0484 11.6013 94.1006 11.5818 95.1992 11.5818C95.2843 11.5818 95.3616 11.5818 95.4468 11.5916H97.5356C98.936 11.5916 100.584 13.0211 100.584 14.9173V15.4425C100.584 17.329 98.936 18.7682 97.5356 18.7682H97.0792H95.2069H94.9903H88.4219V16.1912H97.0637C98.3557 16.1912 98.317 14.1491 97.0637 14.1491C95.9651 14.1491 94.8897 14.1783 93.8066 14.1783C93.7292 14.1783 93.6519 14.1783 93.5745 14.1686H91.4779C90.0775 14.1686 88.4296 12.7391 88.4296 10.8428V10.3079C88.4296 8.42139 90.0775 6.98217 91.4779 6.98217H93.8143H100.321V9.55916H100.298ZM83.7026 9.51054C83.7026 8.05186 84.8476 6.98217 86.0003 6.98217H86.2866V18.7682H83.7026V9.51054ZM76.6158 0V14.2269C76.6158 15.3063 77.3198 16.1912 78.1786 16.1912H81.5827V16.8622V18.0972V18.7682H79.4087H77.0723C75.6719 18.7682 74.024 17.329 74.024 15.4425V2.88817C74.024 1.29336 75.053 0 76.3218 0H76.6158ZM40.8494 18.7682H40.037H38.7605H37.7702H37.6928H34.6833C33.283 18.7682 31.6351 17.329 31.6351 15.4425V10.3079C31.6351 8.42139 33.283 6.98217 34.6833 6.98217H35.3177H36.2848H37.012H38.3195H40.8494C42.2497 6.98217 43.8976 8.42139 43.8976 10.3079V15.4327C43.8976 17.329 42.2497 18.7682 40.8494 18.7682ZM41.36 14.9368V10.8233C41.36 10.1329 40.9113 9.56888 40.362 9.56888H35.163C34.7065 9.56888 34.25 9.97731 34.1727 10.6483C34.1649 10.7066 34.1649 11.2318 34.1649 11.2901V14.9368C34.1649 15.6272 34.6137 16.1912 35.163 16.1912H37.7625H40.362C40.9113 16.1912 41.36 15.6272 41.36 14.9368ZM54.9842 18.7682H52.8953H52.8412H52.7947H52.7483H52.7019H52.6555H52.6091H52.5626H52.5317H52.4853H52.4389H52.3924H52.346H52.2996H52.2532H52.2222H52.1758H52.1294H48.8104C48.6556 18.7682 48.5009 18.7488 48.3462 18.7196V24.8266C48.3462 26.4214 47.3172 27.7147 46.0484 27.7147H45.7621V10.3079C45.7621 8.42139 47.41 6.98217 48.8104 6.98217H49.2127H51.1391H51.5182H54.9765C56.3768 6.98217 58.0247 8.42139 58.0247 10.3079V15.4327C58.0324 17.329 56.3845 18.7682 54.9842 18.7682ZM55.4948 14.9757V14.5478V10.8136C55.4948 10.1329 55.0616 9.57861 54.5277 9.55916H54.4968H49.2978C48.7485 9.55916 48.2998 10.1232 48.2998 10.8136V14.9271C48.2998 15.6175 48.7485 16.1815 49.2978 16.1815H54.4968C55.0306 16.1912 55.4793 15.6467 55.4948 14.9757ZM54.5123 9.55916H54.4968H49.2978H54.4968H54.5123ZM49.2282 9.56888C49.1895 9.56888 49.1508 9.57861 49.1121 9.58833C49.1508 9.57861 49.1895 9.56888 49.2282 9.56888ZM49.0889 9.58833C49.0347 9.59805 48.9883 9.6175 48.9419 9.64668C48.9883 9.6175 49.0425 9.59805 49.0889 9.58833ZM69.1654 18.7682H68.3531H67.0766H66.0863H66.0089H62.9993C61.599 18.7682 59.9511 17.329 59.9511 15.4425V10.3079C59.9511 8.42139 61.599 6.98217 62.9993 6.98217H63.6338H64.6008H65.3281H66.6356H69.1654C70.5658 6.98217 72.2137 8.42139 72.2137 10.3079V15.4327C72.2214 17.329 70.5735 18.7682 69.1654 18.7682ZM69.6838 14.9368V10.8233C69.6838 10.1329 69.2351 9.56888 68.6858 9.56888H63.4868C63.0303 9.56888 62.5738 9.97731 62.4965 10.6483C62.4887 10.7066 62.4887 11.2318 62.4887 11.2901V14.9368C62.4887 15.6272 62.9375 16.1912 63.4868 16.1912H66.0863H68.6858C69.2351 16.1912 69.6838 15.6272 69.6838 14.9368Z" fill="#8BB543"/>
</g>
<defs>
<clipPath id="clip0">
<rect width="148.543" height="42" fill="white"/>
</clipPath>
</defs>
</svg>
