<svg width="36" height="36" viewBox="0 0 36 36" fill="none" xmlns="http://www.w3.org/2000/svg">
<path d="M0 2.57882C0 1.15496 1.19104 -1.0154e-06 2.66033 -1.0154e-06H33.3397C34.8089 -1.0154e-06 36 1.15496 36 2.57882V33.4212C36 34.8455 34.8089 36 33.3397 36H2.66033C1.19104 36 0 34.8455 0 33.4212V2.57882Z" fill="#5B5B5B"/>
<path fill-rule="evenodd" clip-rule="evenodd" d="M10.9132 30.1357V13.8797H5.47573V30.1357H10.9132ZM8.19444 11.6602C10.0906 11.6602 11.2708 10.412 11.2708 8.85198C11.2355 7.25687 10.0906 6.04323 8.23042 6.04323C6.37042 6.04323 5.1543 7.25687 5.1543 8.85198C5.1543 10.412 6.33425 11.6602 8.159 11.6602H8.19434H8.19444Z" fill="white"/>
<path fill-rule="evenodd" clip-rule="evenodd" d="M13.9209 30.1357H19.3583V21.0577C19.3583 20.5719 19.3937 20.0865 19.5372 19.7392C19.9303 18.7685 20.825 17.7631 22.3271 17.7631C24.2947 17.7631 25.0818 19.2538 25.0818 21.4392V30.1357H30.5188V20.8148C30.5188 15.8217 27.8362 13.4983 24.2588 13.4983C21.3254 13.4983 20.0376 15.1275 19.3222 16.2373H19.3585V13.8797H13.921C13.9924 15.4051 13.921 30.1357 13.921 30.1357H13.9209Z" fill="white"/>
</svg>
