<svg width="127" height="36" viewBox="0 0 127 36" fill="none" xmlns="http://www.w3.org/2000/svg">
<path fill-rule="evenodd" clip-rule="evenodd" d="M0 21.8001C0 28.8703 4.01321 36 13 36C21.9787 36 26 28.8703 26 21.8001C26 16.9708 24.3508 11.4096 21.5985 6.91773C18.9219 2.58006 15.7058 0 13 0C10.2866 0 7.06907 2.58006 4.41564 6.91773C1.65023 11.4096 0 16.9708 0 21.8001Z" fill="#E30611"/>
<path fill-rule="evenodd" clip-rule="evenodd" d="M51.1501 21.226L55.3576 2H69.3041V34.2105H61.4117V7.99403L55.6746 34.2105H46.6255L40.8923 8.0107L40.892 34.2105H33V2H46.9426L51.1501 21.226Z" fill="#E30611"/>
<path fill-rule="evenodd" clip-rule="evenodd" d="M80.3576 10.6967H73.0464V2H95.5025V10.6967H88.1913V34.2105H80.3576V10.6967Z" fill="#E30611"/>
<path fill-rule="evenodd" clip-rule="evenodd" d="M115.226 10.6969H126.567V2H115.227C104.808 2 99.2451 8.47431 99.2451 18.1053C99.2451 27.7362 104.808 34.2105 115.227 34.2105H126.567V25.5136H115.226C110.405 25.5136 107.234 23.3596 107.234 18.1053C107.234 12.851 110.405 10.6969 115.226 10.6969Z" fill="#E30611"/>
</svg>
