<svg width="36" height="36" viewBox="0 0 36 36" fill="none" xmlns="http://www.w3.org/2000/svg">
<path fill-rule="evenodd" clip-rule="evenodd" d="M23.5258 0H12.4742C2.38814 0 0 2.38814 0 12.4742V23.5258C0 33.6119 2.38814 36 12.4742 36H23.5258C33.6119 36 36 33.6119 36 23.5258V12.4742C36 2.38814 33.5864 0 23.5258 0ZM29.0642 25.6852H26.4474C25.4566 25.6852 25.1517 24.8977 23.3733 23.0939C21.8236 21.5949 21.1376 21.3917 20.7565 21.3917C20.223 21.3917 20.0706 21.5441 20.0706 22.2809V24.6436C20.0706 25.2788 19.8673 25.6598 18.1905 25.6598C15.4213 25.6598 12.3472 23.9831 10.1877 20.8581C6.93578 16.2851 6.04658 12.8553 6.04658 12.144C6.04658 11.7629 6.19901 11.4072 6.93578 11.4072H9.55258C10.2131 11.4072 10.4672 11.7121 10.7212 12.4234C12.0169 16.1581 14.1764 19.4354 15.0656 19.4354C15.3959 19.4354 15.5483 19.283 15.5483 18.4446V14.5829C15.4467 12.8045 14.5067 12.6521 14.5067 12.0169C14.5067 11.7121 14.7608 11.4072 15.1673 11.4072H19.283C19.8419 11.4072 20.0452 11.7121 20.0452 12.3726V17.5808C20.0452 18.1397 20.2992 18.343 20.4517 18.343C20.7819 18.343 21.0614 18.1397 21.6711 17.53C23.5512 15.4213 24.8977 12.1694 24.8977 12.1694C25.0755 11.7883 25.3804 11.4326 26.0409 11.4326H28.6577C29.4453 11.4326 29.6231 11.8391 29.4453 12.398C29.115 13.9224 25.9139 18.4446 25.9139 18.4446C25.6344 18.9019 25.5328 19.1052 25.9139 19.6133C26.1934 19.9944 27.108 20.7819 27.7177 21.4933C28.8356 22.7636 29.6994 23.8306 29.928 24.5674C30.1821 25.3042 29.801 25.6852 29.0642 25.6852Z" fill="#D8D8D8"/>
</svg>
