<svg width="169" height="135" viewBox="0 0 169 135" fill="none" xmlns="http://www.w3.org/2000/svg">
<path d="M84.2124 5C29.4335 5.00001 4.99989 29.7811 5 42.7223L5 66.6774L44.898 66.6774C44.898 44.87 71.5421 42.7223 84.2124 42.7223" stroke="#B5B5B5" stroke-opacity="0.07" stroke-width="10" stroke-linejoin="round"/>
<path d="M163.2 42.7223L158.2 42.7223L158.2 42.7223L163.2 42.7223ZM128.302 66.6774C128.302 69.4388 126.063 71.6774 123.302 71.6774C120.54 71.6774 118.302 69.4388 118.302 66.6774L128.302 66.6774ZM163.2 66.6774L168.2 66.6774C168.2 69.4388 165.961 71.6774 163.2 71.6774L163.2 66.6774ZM143.251 66.6774L138.252 66.7842C138.223 65.4399 138.737 64.1407 139.678 63.1798C140.618 62.2189 141.906 61.6774 143.251 61.6774L143.251 66.6774ZM144.599 129.731L149.597 129.625C149.626 130.969 149.112 132.268 148.172 133.229C147.231 134.19 145.943 134.731 144.599 134.731L144.599 129.731ZM24.9045 129.731L24.9045 134.731C22.143 134.731 19.9045 132.493 19.9045 129.731L24.9045 129.731ZM158.2 42.7223C158.2 40.9486 157.31 38.0121 154.57 34.3798C151.888 30.8251 147.659 26.9197 141.658 23.2849C129.677 16.0284 110.864 9.99999 84.2124 9.99999L84.2124 -1.17323e-05C112.34 -1.29881e-05 133.02 6.36215 146.838 14.7315C153.737 18.9096 158.984 23.6259 162.553 28.3574C166.064 33.0113 168.2 38.0254 168.2 42.7223L158.2 42.7223ZM84.2124 37.7223C90.3009 37.7223 100.846 38.2521 110.036 41.8695C114.676 43.6958 119.255 46.4174 122.695 50.5234C126.21 54.719 128.302 60.0878 128.302 66.6774L118.302 66.6774C118.302 62.3632 116.99 59.2858 115.029 56.9454C112.993 54.5153 110.024 52.6112 106.374 51.1746C98.9851 48.2664 89.9854 47.7223 84.2124 47.7223L84.2124 37.7223ZM158.2 66.6774L158.2 42.7223L168.2 42.7223L168.2 66.6774L158.2 66.6774ZM163.2 71.6774L143.251 71.6774L143.251 61.6774L163.2 61.6774L163.2 71.6774ZM148.25 66.5705L149.597 129.625L139.6 129.838L138.252 66.7842L148.25 66.5705ZM144.599 134.731L24.9045 134.731L24.9045 124.731L144.599 124.731L144.599 134.731ZM19.9045 129.731L19.9045 78.2419L29.9045 78.2419L29.9045 129.731L19.9045 129.731Z" fill="#B5B5B5" fill-opacity="0.07"/>
<path d="M59.9497 90.0817C59.9497 103.92 70.8123 115.138 84.212 115.138C97.6117 115.138 108.474 103.92 108.474 90.0817C108.474 76.2434 97.6117 65.0253 84.212 65.0253" stroke="#B5B5B5" stroke-opacity="0.07" stroke-width="10" stroke-linecap="round" stroke-linejoin="round"/>
</svg>
