<svg width="196" height="189" viewBox="0 0 196 189" fill="none" xmlns="http://www.w3.org/2000/svg">
<path d="M76.44 20.79L80.6466 16.7336C90.331 7.3951 105.669 7.3951 115.353 16.7336L177.337 76.5039C187.533 86.3353 187.533 102.665 177.337 112.496L115.353 172.266C105.669 181.605 90.331 181.605 80.6466 172.266L18.6626 112.496C8.46714 102.665 8.46715 86.3352 18.6626 76.5039L63.308 33.453L81.928 51.408C80.6867 56.385 80.7128 67.2084 90.748 70.686V119.448C87.808 120.897 81.732 127.046 81.732 134.757C81.732 144.396 88.004 151.2 98.98 151.2C109.956 151.2 116.816 145.341 116.816 134.757C116.816 126.29 111.328 120.582 108.78 119.448V75.978L123.48 90.153C121.912 93.681 120.697 102.136 128.38 107.73C137.984 114.723 147.784 111.699 152.292 107.73C156.8 103.761 161.112 92.799 152.292 83.727C145.236 76.4694 138.637 77.931 136.22 79.569L116.424 60.858C117.665 53.235 115.13 38.4426 95.06 40.257L86.632 32.13" stroke="#B5B5B5" stroke-opacity="0.07" stroke-width="10" stroke-linecap="round" stroke-linejoin="round"/>
</svg>
